<svg xmlns="http://www.w3.org/2000/svg" viewBox="0 0 460.99 113.39"><defs><style>.cls-1{fill:#f17b15;}.cls-2{fill:#fff;}</style></defs><g id="Layer_2" data-name="Layer 2"><g id="Layer_1-2" data-name="Layer 1"><path class="cls-1" d="M38.49,4.68c1.59-1.51,3.68-1.76,5.68-1.76C61.45,2.92,79.4.42,99.94.42c3.43,0,4.93,1.67,4.93,3.84a7.15,7.15,0,0,1-1.33,3.84c-21.21,30.64-34.41,57.28-61,68.05A69.22,69.22,0,0,1,16.7,81.49c-7,0-12.53-1.33-15.7-3.09-.67-.42-1-.83-1-1.33,0-1.17,1.84-2.42,4.43-2.42a22.62,22.62,0,0,0,5.67.75C31,75.4,47.26,46.59,54.77,31.73c-.08-1.5-1.83-2-4.51-2-7,0-20.12,3.68-24.88,3.68-4.26,0-4.34-3.59-4.34-3.59C21.12,25.47,35,7.85,38.49,4.68Z"/><path class="cls-1" d="M113.89,10c-2.59,0-7,1.34-12.27,1.34-9.44,0-9.94-2-9.94-2,0-.67,2.42-2.42,3.51-2.42a2.66,2.66,0,0,1,.75.08,16.67,16.67,0,0,0,4.26.59c12.19,0,22-7.6,30.64-7.6,7.35,0,9.94,3.26,9.94,7.85,0,10-12.53,26.63-16.54,31,0,0,0,.41.34.41,2.09,0,30.56-32.64,37.91-36.07a8.48,8.48,0,0,1,3.67-.92,5.15,5.15,0,0,1,4.26,2c3.34,4,5.34,7.76,5.34,11.19a8.47,8.47,0,0,1-1.5,4.76c-3.17,4.76-12.94,19.12-12.94,21,0,.08,0,.16.16.16,1.09,0,3.93-3.17,3.93-3.17.67-.92,19.87-17,26.88-17,2.26,0,3.68,2.34,3.68,4.42a3.52,3.52,0,0,1-.84,2.42c-5.09,6-22.37,37.58-22.37,52.44a7,7,0,0,0,6.84,7c4,0,10.94-3.42,14-11.94,0,0,.67-.91,1.25-.91.84,0,1.25,1.66,1.25,2.42,0,7.51-20.7,36.32-43.33,36.32-7.68,0-13.11-4.26-13.11-13.53,0-6.43,2.67-15.36,9-27,0,0,8.68-16.61,8.93-18.45,0-.42-.16-.59-.5-.59a3.25,3.25,0,0,0-1.67.84c-.42.67-14.53,18.62-19,22a13.85,13.85,0,0,1-8.94,3.09c-7.51,0-19.2-2.67-19.2-6.6a4.28,4.28,0,0,1,1-2.59c2.59-3.59,13.27-17.78,13.27-17.78,0-1-.08-1.67-.41-1.67a.85.85,0,0,0-.59.33c-1.17,1.17-20.79,21.88-24.46,24a21,21,0,0,1-10,2.67c-8,0-18.79-8.93-18.79-15.87,0-.58.5-1.67,3.34-3.17,16.7-9.1,44.59-37,44.59-47.17C116.23,10.52,115.39,10,113.89,10Z"/><path class="cls-2" d="M308.61,1.92c.5,0,13.28,0,13.28,3.76,0,1.25-1.51,2.09-2.34,2.09-1.09,0-1.92-.26-3.59-.26A18.52,18.52,0,0,0,306,10.19c-3.92,2.42-10.35,9.18-15.7,15.53,8.52-1.59,17.45-3.51,26.47-5.85a16.06,16.06,0,0,1,3.76-.83c.67,0,1.59.58,1.59,1.25a1.13,1.13,0,0,1-.42.83C318.88,24,310,32.06,305.6,32.4c-7.68.58-15.19,1.25-22.21,2.08-.08.09-.16.09-.16.17C278.3,41.5,259.85,70,259.85,70s-16.45,27.14-18,28.39c-1.42,1.17-3.75,2.59-8.68,2.59-5.26,0-21.63-4.85-21.63-9.86,0-2.92,6.1-8.43,12.19-13.44C236.47,67.13,244.07,56.86,258.26,38c-1.58.25-3.09.59-4.42.84l-8.27,1.75c-.67,0-1.17-.17-1.17-.75,0-2,3.76-5.1,7.27-6.18,3.34-1.09,7.43-2,12.1-3,.67-.75,1.17-1.5,1.84-2.33C276.55,13.94,287.74,1.92,308.61,1.92Z"/><path class="cls-2" d="M314,66.88a8.73,8.73,0,0,1-4-.92c-5.26,3.93-14.53,9.35-22.8,9.35-7.93,0-11.27-3.67-11.27-8.93,0-12.78,19.79-34.82,40.08-34.82,1.5,0,3.25,1,3.25,1.84,0,.42-.41.83-1.67,1C307.11,36,300.43,46.09,300.43,53c0,3.17,1.42,5.68,4.42,6.43a16.72,16.72,0,0,1-.83-5.51c0-7.68,7.68-17.37,16.78-17.37,3.42,0,4.76,1.84,4.76,4.51,0,4.84-4.43,12.61-9.1,17.78.08,1.09-.08,3.51,1.67,3.51,1.42,0,4-1.5,8.85-6.43a1.62,1.62,0,0,1,1.08-.5,1.16,1.16,0,0,1,1.26,1.09,1.59,1.59,0,0,1-.34.83C323.56,64.21,318.21,66.88,314,66.88Z"/><path class="cls-2" d="M357.29,66.88a8.81,8.81,0,0,1-4-.92c-5.26,3.93-14.52,9.35-22.79,9.35-7.93,0-11.27-3.67-11.27-8.93,0-12.78,19.79-34.82,40.07-34.82,1.51,0,3.26,1,3.26,1.84,0,.42-.42.83-1.67,1C350.44,36,343.77,46.09,343.77,53c0,3.17,1.41,5.68,4.42,6.43a16.46,16.46,0,0,1-.84-5.51c0-7.68,7.69-17.37,16.79-17.37,3.42,0,4.76,1.84,4.76,4.51,0,4.84-4.43,12.61-9.1,17.78.08,1.09-.09,3.51,1.67,3.51,1.42,0,4-1.5,8.85-6.43a1.62,1.62,0,0,1,1.08-.5,1.15,1.15,0,0,1,1.25,1.09,1.61,1.61,0,0,1-.33.83C366.89,64.21,361.55,66.88,357.29,66.88Z"/><path class="cls-2" d="M429.93,55.69a1.68,1.68,0,0,1,.92-.33A1.33,1.33,0,0,1,432,56.61a1.15,1.15,0,0,1-.25.75c-5.93,7.43-19.12,19.12-31.48,19.12-5.09,0-9.85-3.34-9.85-7.18a5.13,5.13,0,0,1,.58-2c0-.09-.08-.17-.25-.17-1.33,0-6.42,7.35-17.61,7.35-6.77,0-9.86-3.26-9.86-8,0-12,20-33.4,50.44-33.4,0,0,14-17.61,17.53-21.29S441.21,4.68,445,4.68c5.18,0,16,.08,16,4.17,0,2.42-5.67,6-8.68,8.52C437.7,28,413.15,51.77,413.15,60.45c0,2.09,1.42,3.26,4.59,3.26C421.08,63.71,426.26,59.78,429.93,55.69Zm-31.81.17c3.09-6.1,8.94-12.78,12.53-19.12a.32.32,0,0,0,.08-.25c0-.34-.5-.42-1.09-.42-9.76,0-19,11.36-19,17.37,0,2.17,1.17,3.67,4.09,3.67A6.26,6.26,0,0,0,398.12,55.86Z"/></g></g></svg>
