<svg xmlns="http://www.w3.org/2000/svg" viewBox="0 0 61 61"><defs><style>.cls-1{fill:#fff;}</style></defs><g id="Camada_2" data-name="Camada 2"><g id="Camada_2-2" data-name="Camada 2"><path class="cls-1" d="M30.5,0A30.48,30.48,0,0,0,12,54.74a28.54,28.54,0,0,0,4.4,2.81,30.48,30.48,0,0,0,29.3-.62,31.21,31.21,0,0,0,4.28-3A30.49,30.49,0,0,0,30.5,0Zm0,57a26.3,26.3,0,0,1-14.44-4.3,15,15,0,0,1,29.81-.64A26.24,26.24,0,0,1,30.5,57Zm18.85-7.9a19,19,0,0,0-36.89.79,26.5,26.5,0,1,1,36.89-.79Z"/><path class="cls-1" d="M31,8A11,11,0,1,0,42,19,11,11,0,0,0,31,8Zm0,18a7,7,0,1,1,7-7A7,7,0,0,1,31,26Z"/></g></g></svg>